<?xml version="1.0" encoding="iso-8859-1"?>
<svg viewBox="0 0 1701 137" xmlns="http://www.w3.org/2000/svg"><g id="mainlayer"><defs/><polyline fill="none" points="341,0 341,136" stroke="orangered" stroke-width="1" stroke-dasharray="12 4"/><polygon fill="orangered" points="339,87 339,91 343,91 343,87" stroke-width="1" stroke-dasharray="12 4"/><polyline fill="none" points="1006,0 1006,136" stroke="orangered" stroke-width="1" stroke-dasharray="12 4"/><polygon fill="orangered" points="1004,87 1004,91 1008,91 1008,87" stroke-width="1" stroke-dasharray="12 4"/><polyline fill="none" points="1561,0 1561,136" stroke="orangered" stroke-width="1" stroke-dasharray="12 4"/><polygon fill="orangered" points="1559,87 1559,91 1563,91 1563,87" stroke-width="1" stroke-dasharray="12 4"/><polyline fill="none" points="341,8 654,8" stroke="orangered" stroke-width="1"/><polyline fill="none" points="692,8 1006,8" stroke="orangered" stroke-width="1"/><text x="654" y="15" font-family="Arial" font-size="9pt" fill="orangered">frame1</text><polyline fill="none" points="1006,8 1259,8" stroke="orangered" stroke-width="1"/><polyline fill="none" points="1307,8 1561,8" stroke="orangered" stroke-width="1"/><text x="1259" y="15" font-family="Arial" font-size="9pt" fill="orangered">dummy1</text><polyline fill="none" points="1561,8 1612,8" stroke="orangered" stroke-width="1"/><polyline fill="none" points="1650,8 1701,8" stroke="orangered" stroke-width="1"/><text x="1612" y="15" font-family="Arial" font-size="9pt" fill="orangered">frame2</text><polygon stroke="darkgreen" fill="darkgreen" points="1172,25 1168,23 1168,27" stroke-width="1"/><polyline fill="none" stroke="darkgreen" points="1133,25 1168,25" stroke-width="1"/><polygon stroke="darkgreen" fill="darkgreen" points="1062,25 1066,23 1066,27" stroke-width="1"/><polyline fill="none" stroke="darkgreen" points="1101,25 1066,25" stroke-width="1"/><polyline fill="none" points="1172,20 1172,28" stroke="darkgreen" stroke-width="1"/><polyline fill="none" points="1062,20 1062,28" stroke="darkgreen" stroke-width="1"/><polygon stroke="darkgreen" fill="darkgreen" points="1172,25 1168,23 1168,27" stroke-width="1"/><polyline fill="none" stroke="darkgreen" points="1133,25 1168,25" stroke-width="1"/><polygon stroke="darkgreen" fill="darkgreen" points="1062,25 1066,23 1066,27" stroke-width="1"/><polyline fill="none" stroke="darkgreen" points="1101,25 1066,25" stroke-width="1"/><polyline fill="none" points="1172,20 1172,28" stroke="darkgreen" stroke-width="1"/><polyline fill="none" points="1062,20 1062,28" stroke="darkgreen" stroke-width="1"/><polygon stroke="darkgreen" fill="darkgreen" points="396,63 392,61 392,65" stroke-width="1"/><polyline fill="none" stroke="darkgreen" points="373,63 392,63" stroke-width="1"/><polygon stroke="darkgreen" fill="darkgreen" points="341,63 345,61 345,65" stroke-width="1"/><polyline fill="none" stroke="darkgreen" points="363,63 345,63" stroke-width="1"/><polyline fill="none" points="341,58 341,77" stroke="darkgreen" stroke-width="1"/><polyline fill="none" points="396,28 396,68" stroke="darkgreen" stroke-width="1"/><polygon stroke="darkgreen" fill="darkgreen" points="1006,74 1002,72 1002,76" stroke-width="1"/><polyline fill="none" stroke="darkgreen" points="709,74 1002,74" stroke-width="1"/><polygon stroke="darkgreen" fill="darkgreen" points="341,74 345,72 345,76" stroke-width="1"/><polyline fill="none" stroke="darkgreen" points="637,74 345,74" stroke-width="1"/><polyline fill="none" points="1006,69 1006,77" stroke="darkgreen" stroke-width="1"/><polyline fill="none" points="341,69 341,77" stroke="darkgreen" stroke-width="1"/><polygon stroke="darkgreen" fill="darkgreen" points="1006,63 1002,61 1002,65" stroke-width="1"/><polyline fill="none" stroke="darkgreen" points="983,63 1002,63" stroke-width="1"/><polygon stroke="darkgreen" fill="darkgreen" points="951,63 955,61 955,65" stroke-width="1"/><polyline fill="none" stroke="darkgreen" points="973,63 955,63" stroke-width="1"/><polyline fill="none" points="1006,58 1006,77" stroke="darkgreen" stroke-width="1"/><polyline fill="none" points="951,45 951,68" stroke="darkgreen" stroke-width="1"/><polygon stroke="darkgreen" fill="darkgreen" points="1561,74 1557,72 1557,76" stroke-width="1"/><polyline fill="none" stroke="darkgreen" points="1324,74 1557,74" stroke-width="1"/><polygon stroke="darkgreen" fill="darkgreen" points="1006,74 1010,72 1010,76" stroke-width="1"/><polyline fill="none" stroke="darkgreen" points="1242,74 1010,74" stroke-width="1"/><polyline fill="none" points="1006,69 1006,77" stroke="darkgreen" stroke-width="1"/><polyline fill="none" points="1561,69 1561,77" stroke="darkgreen" stroke-width="1"/><polygon stroke="darkgreen" fill="darkgreen" points="1006,74 1002,72 1002,76" stroke-width="1"/><polyline fill="none" stroke="darkgreen" points="709,74 1002,74" stroke-width="1"/><polygon stroke="darkgreen" fill="darkgreen" points="341,74 345,72 345,76" stroke-width="1"/><polyline fill="none" stroke="darkgreen" points="637,74 345,74" stroke-width="1"/><polyline fill="none" points="1006,69 1006,77" stroke="darkgreen" stroke-width="1"/><polyline fill="none" points="341,69 341,77" stroke="darkgreen" stroke-width="1"/><polygon stroke="darkgreen" fill="darkgreen" points="1616,74 1612,72 1612,76" stroke-width="1"/><polyline fill="none" stroke="darkgreen" points="1593,74 1612,74" stroke-width="1"/><polygon stroke="darkgreen" fill="darkgreen" points="1561,74 1565,72 1565,76" stroke-width="1"/><polyline fill="none" stroke="darkgreen" points="1583,74 1565,74" stroke-width="1"/><polyline fill="none" points="1561,69 1561,77" stroke="darkgreen" stroke-width="1"/><polyline fill="none" points="1616,28 1616,79" stroke="darkgreen" stroke-width="1"/><polygon stroke="darkgreen" fill="darkgreen" points="1561,74 1557,72 1557,76" stroke-width="1"/><polyline fill="none" stroke="darkgreen" points="1324,74 1557,74" stroke-width="1"/><polygon stroke="darkgreen" fill="darkgreen" points="1006,74 1010,72 1010,76" stroke-width="1"/><polyline fill="none" stroke="darkgreen" points="1242,74 1010,74" stroke-width="1"/><polyline fill="none" points="1006,69 1006,77" stroke="darkgreen" stroke-width="1"/><polyline fill="none" points="1561,69 1561,77" stroke="darkgreen" stroke-width="1"/><polygon stroke="darkgreen" fill="darkgreen" points="368,112 364,110 364,114" stroke-width="1"/><polyline fill="none" stroke="darkgreen" points="359,112 364,112" stroke-width="1"/><polygon stroke="darkgreen" fill="darkgreen" points="341,112 345,110 345,114" stroke-width="1"/><polyline fill="none" stroke="darkgreen" points="349,112 345,112" stroke-width="1"/><polyline fill="none" points="368,107 368,115" stroke="darkgreen" stroke-width="1"/><polyline fill="none" points="341,94 341,117" stroke="darkgreen" stroke-width="1"/><polygon stroke="darkgreen" fill="darkgreen" points="1006,112 1002,110 1002,114" stroke-width="1"/><polyline fill="none" stroke="darkgreen" points="997,112 1002,112" stroke-width="1"/><polygon stroke="darkgreen" fill="darkgreen" points="978,112 982,110 982,114" stroke-width="1"/><polyline fill="none" stroke="darkgreen" points="987,112 982,112" stroke-width="1"/><polyline fill="none" points="978,107 978,115" stroke="darkgreen" stroke-width="1"/><polyline fill="none" points="1006,77 1006,117" stroke="darkgreen" stroke-width="1"/><polygon stroke="darkgreen" fill="darkgreen" points="1588,112 1584,110 1584,114" stroke-width="1"/><polyline fill="none" stroke="darkgreen" points="1579,112 1584,112" stroke-width="1"/><polygon stroke="darkgreen" fill="darkgreen" points="1561,112 1565,110 1565,114" stroke-width="1"/><polyline fill="none" stroke="darkgreen" points="1569,112 1565,112" stroke-width="1"/><polyline fill="none" points="1588,107 1588,115" stroke="darkgreen" stroke-width="1"/><polyline fill="none" points="1561,94 1561,117" stroke="darkgreen" stroke-width="1"/><polyline fill="none" points="64,46 68,32 115,32" stroke="black" stroke-width="1"/><polyline fill="none" points="115,32 123,46 170,46" stroke="black" stroke-width="1"/><polyline fill="none" points="170,46 178,32 226,32" stroke="black" stroke-width="1"/><polyline fill="none" points="226,32 234,46 281,46" stroke="black" stroke-width="1"/><polyline fill="none" points="281,46 289,32 337,32" stroke="black" stroke-width="1"/><polyline fill="none" points="337,32 345,46 392,46" stroke="black" stroke-width="1"/><polyline fill="none" points="392,46 400,32 448,32" stroke="black" stroke-width="1"/><polyline fill="none" points="448,32 456,46 503,46" stroke="black" stroke-width="1"/><polyline fill="none" points="503,46 511,32 559,32" stroke="black" stroke-width="1"/><polyline fill="none" points="559,32 567,46 614,46" stroke="black" stroke-width="1"/><polyline fill="none" points="614,46 622,32 669,32" stroke="black" stroke-width="1"/><polyline fill="none" points="669,32 677,46 725,46" stroke="black" stroke-width="1"/><polyline fill="none" points="725,46 733,32 780,32" stroke="black" stroke-width="1"/><polyline fill="none" points="780,32 788,46 836,46" stroke="black" stroke-width="1"/><polyline fill="none" points="836,46 844,32 891,32" stroke="black" stroke-width="1"/><polyline fill="none" points="891,32 899,46 947,46" stroke="black" stroke-width="1"/><polyline fill="none" points="947,46 955,32 1002,32" stroke="black" stroke-width="1"/><polyline fill="none" points="1002,32 1010,46 1058,46" stroke="black" stroke-width="1"/><polyline fill="none" points="1058,46 1066,32 1113,32" stroke="black" stroke-width="1"/><polyline fill="none" points="1113,32 1121,46 1168,46" stroke="black" stroke-width="1"/><polyline fill="none" points="1168,46 1176,32 1224,32" stroke="black" stroke-width="1"/><polyline fill="none" points="1224,32 1232,46 1279,46" stroke="black" stroke-width="1"/><polyline fill="none" points="1279,46 1287,32 1335,32" stroke="black" stroke-width="1"/><polyline fill="none" points="1335,32 1343,46 1390,46" stroke="black" stroke-width="1"/><polyline fill="none" points="1390,46 1398,32 1446,32" stroke="black" stroke-width="1"/><polyline fill="none" points="1446,32 1454,46 1501,46" stroke="black" stroke-width="1"/><polyline fill="none" points="1501,46 1509,32 1557,32" stroke="black" stroke-width="1"/><polyline fill="none" points="1557,32 1565,46 1612,46" stroke="black" stroke-width="1"/><polyline fill="none" points="1612,46 1620,32 1667,32" stroke="black" stroke-width="1"/><polyline fill="none" points="1667,32 1675,46 1697,46" stroke="black" stroke-width="1"/><polyline fill="none" points="68,95 337,95" stroke="black" stroke-width="1"/><polyline fill="none" points="337,95 345,81 1002,81" stroke="black" stroke-width="1"/><polyline fill="none" points="1002,81 1010,95 1557,95" stroke="black" stroke-width="1"/><polyline fill="none" points="1557,95 1565,81 1701,81" stroke="black" stroke-width="1"/><polygon stroke="black" fill="darkgray" points="64,120 64,134 364,134 368,127 364,120" stroke-width="1"/><polygon stroke="black" fill="white" points="372,120 368,127 372,134 420,134 424,127 420,120" stroke-width="1"/><text x="389" y="131" font-family="Arial" font-size="9pt" fill="black">V0</text><polygon stroke="black" fill="darkgray" points="428,120 424,127 428,134 475,134 479,127 475,120" stroke-width="1"/><polygon stroke="black" fill="white" points="483,120 479,127 483,134 531,134 535,127 531,120" stroke-width="1"/><text x="500" y="131" font-family="Arial" font-size="9pt" fill="black">V1</text><polygon stroke="black" fill="darkgray" points="539,120 535,127 539,134 586,134 590,127 586,120" stroke-width="1"/><polygon stroke="black" fill="white" points="594,120 590,127 594,134 642,134 646,127 642,120" stroke-width="1"/><text x="611" y="131" font-family="Arial" font-size="9pt" fill="black">V2</text><polygon stroke="black" fill="darkgray" points="650,120 646,127 650,134 697,134 701,127 697,120" stroke-width="1"/><polygon stroke="black" fill="white" points="705,120 701,127 705,134 753,134 757,127 753,120" stroke-width="1"/><text x="722" y="131" font-family="Arial" font-size="9pt" fill="black">V3</text><polygon stroke="black" fill="darkgray" points="761,120 757,127 761,134 808,134 812,127 808,120" stroke-width="1"/><polygon stroke="black" fill="white" points="816,120 812,127 816,134 863,134 867,127 863,120" stroke-width="1"/><text x="827" y="131" font-family="Arial" font-size="9pt" fill="black">Vn-2</text><polygon stroke="black" fill="darkgray" points="871,120 867,127 871,134 919,134 923,127 919,120" stroke-width="1"/><polygon stroke="black" fill="white" points="927,120 923,127 927,134 974,134 978,127 974,120" stroke-width="1"/><text x="938" y="131" font-family="Arial" font-size="9pt" fill="black">Vn-1</text><polygon stroke="black" fill="darkgray" points="982,120 978,127 982,134 1584,134 1588,127 1584,120" stroke-width="1"/><polygon stroke="black" fill="white" points="1592,120 1588,127 1592,134 1640,134 1644,127 1640,120" stroke-width="1"/><text x="1606" y="131" font-family="Arial" font-size="9pt" fill="black">V_0</text><polygon stroke="black" fill="darkgray" points="1648,120 1644,127 1648,134 1691,134 1695,127 1691,120" stroke-width="1"/><polygon stroke="black" fill="white" points="1699,120 1695,127 1699,134 1701,134 1701,120" stroke-width="1"/><polygon fill="none" points="784,30 785,31 784,31 784,32 783,33 783,34 783,35 783,36 784,37 784,38 784,39 784,40 785,40 785,41 785,42 784,42 784,43 784,44 783,44 783,45 782,45 788,45 787,44 787,43 788,43 788,42 788,41 788,40 788,39 788,38 788,37 787,37 787,36 787,35 787,34 787,33 787,32 788,32 788,31 789,30" stroke-width="1"/><polygon fill="black" points="784,30 783,30 783,31 782,31 782,32 782,33 782,34 782,35 782,36 782,37 782,38 783,38 783,39 783,40 783,41 783,42 783,43 782,43 782,44 782,45 783,45 783,44 784,44 784,43 784,42 785,42 785,41 785,40 784,40 784,39 784,38 784,37 783,36 783,35 783,34 783,33 784,32 784,31 785,31" stroke-width="1"/><polygon fill="black" points="789,30 788,30 788,31 787,31 787,32 787,33 787,34 787,35 787,36 787,37 787,38 788,38 788,39 788,40 788,41 788,42 788,43 787,43 787,44 787,45 788,45 788,44 789,44 789,43 789,42 790,42 790,41 790,40 789,40 789,39 789,38 789,37 788,36 788,35 788,34 788,33 789,32 789,31 790,31" stroke-width="1"/><polygon fill="none" points="784,79 785,80 784,80 784,81 783,82 783,83 783,84 783,85 784,86 784,87 784,88 784,89 785,89 785,90 785,91 784,91 784,92 784,93 783,93 783,94 782,94 788,94 787,93 787,92 788,92 788,91 788,90 788,89 788,88 788,87 788,86 787,86 787,85 787,84 787,83 787,82 787,81 788,81 788,80 789,79" stroke-width="1"/><polygon fill="black" points="784,79 783,79 783,80 782,80 782,81 782,82 782,83 782,84 782,85 782,86 782,87 783,87 783,88 783,89 783,90 783,91 783,92 782,92 782,93 782,94 783,94 783,93 784,93 784,92 784,91 785,91 785,90 785,89 784,89 784,88 784,87 784,86 783,85 783,84 783,83 783,82 784,81 784,80 785,80" stroke-width="1"/><polygon fill="black" points="789,79 788,79 788,80 787,80 787,81 787,82 787,83 787,84 787,85 787,86 787,87 788,87 788,88 788,89 788,90 788,91 788,92 787,92 787,93 787,94 788,94 788,93 789,93 789,92 789,91 790,91 790,90 790,89 789,89 789,88 789,87 789,86 788,85 788,84 788,83 788,82 789,81 789,80 790,80" stroke-width="1"/><polygon fill="none" points="784,117 785,118 784,118 784,119 783,120 783,121 783,122 783,123 784,124 784,125 784,126 784,127 785,127 785,128 785,129 784,129 784,130 784,131 783,131 783,132 782,132 788,132 787,131 787,130 788,130 788,129 788,128 788,127 788,126 788,125 788,124 787,124 787,123 787,122 787,121 787,120 787,119 788,119 788,118 789,117" stroke-width="1"/><polygon fill="black" points="784,117 783,117 783,118 782,118 782,119 782,120 782,121 782,122 782,123 782,124 782,125 783,125 783,126 783,127 783,128 783,129 783,130 782,130 782,131 782,132 783,132 783,131 784,131 784,130 784,129 785,129 785,128 785,127 784,127 784,126 784,125 784,124 783,123 783,122 783,121 783,120 784,119 784,118 785,118" stroke-width="1"/><polygon fill="black" points="789,117 788,117 788,118 787,118 787,119 787,120 787,121 787,122 787,123 787,124 787,125 788,125 788,126 788,127 788,128 788,129 788,130 787,130 787,131 787,132 788,132 788,131 789,131 789,130 789,129 790,129 790,128 790,127 789,127 789,126 789,125 789,124 788,123 788,122 788,121 788,120 789,119 789,118 790,118" stroke-width="1"/><polygon fill="none" points="1228,30 1229,31 1228,31 1228,32 1227,33 1227,34 1227,35 1227,36 1228,37 1228,38 1228,39 1228,40 1229,40 1229,41 1229,42 1228,42 1228,43 1228,44 1227,44 1227,45 1226,45 1232,45 1231,44 1231,43 1232,43 1232,42 1232,41 1232,40 1232,39 1232,38 1232,37 1231,37 1231,36 1231,35 1231,34 1231,33 1231,32 1232,32 1232,31 1233,30" stroke-width="1"/><polygon fill="black" points="1228,30 1227,30 1227,31 1226,31 1226,32 1226,33 1226,34 1226,35 1226,36 1226,37 1226,38 1227,38 1227,39 1227,40 1227,41 1227,42 1227,43 1226,43 1226,44 1226,45 1227,45 1227,44 1228,44 1228,43 1228,42 1229,42 1229,41 1229,40 1228,40 1228,39 1228,38 1228,37 1227,36 1227,35 1227,34 1227,33 1228,32 1228,31 1229,31" stroke-width="1"/><polygon fill="black" points="1233,30 1232,30 1232,31 1231,31 1231,32 1231,33 1231,34 1231,35 1231,36 1231,37 1231,38 1232,38 1232,39 1232,40 1232,41 1232,42 1232,43 1231,43 1231,44 1231,45 1232,45 1232,44 1233,44 1233,43 1233,42 1234,42 1234,41 1234,40 1233,40 1233,39 1233,38 1233,37 1232,36 1232,35 1232,34 1232,33 1233,32 1233,31 1234,31" stroke-width="1"/><polygon fill="none" points="1228,79 1229,80 1228,80 1228,81 1227,82 1227,83 1227,84 1227,85 1228,86 1228,87 1228,88 1228,89 1229,89 1229,90 1229,91 1228,91 1228,92 1228,93 1227,93 1227,94 1226,94 1232,94 1231,93 1231,92 1232,92 1232,91 1232,90 1232,89 1232,88 1232,87 1232,86 1231,86 1231,85 1231,84 1231,83 1231,82 1231,81 1232,81 1232,80 1233,79" stroke-width="1"/><polygon fill="black" points="1228,79 1227,79 1227,80 1226,80 1226,81 1226,82 1226,83 1226,84 1226,85 1226,86 1226,87 1227,87 1227,88 1227,89 1227,90 1227,91 1227,92 1226,92 1226,93 1226,94 1227,94 1227,93 1228,93 1228,92 1228,91 1229,91 1229,90 1229,89 1228,89 1228,88 1228,87 1228,86 1227,85 1227,84 1227,83 1227,82 1228,81 1228,80 1229,80" stroke-width="1"/><polygon fill="black" points="1233,79 1232,79 1232,80 1231,80 1231,81 1231,82 1231,83 1231,84 1231,85 1231,86 1231,87 1232,87 1232,88 1232,89 1232,90 1232,91 1232,92 1231,92 1231,93 1231,94 1232,94 1232,93 1233,93 1233,92 1233,91 1234,91 1234,90 1234,89 1233,89 1233,88 1233,87 1233,86 1232,85 1232,84 1232,83 1232,82 1233,81 1233,80 1234,80" stroke-width="1"/><polygon fill="none" points="1228,117 1229,118 1228,118 1228,119 1227,120 1227,121 1227,122 1227,123 1228,124 1228,125 1228,126 1228,127 1229,127 1229,128 1229,129 1228,129 1228,130 1228,131 1227,131 1227,132 1226,132 1232,132 1231,131 1231,130 1232,130 1232,129 1232,128 1232,127 1232,126 1232,125 1232,124 1231,124 1231,123 1231,122 1231,121 1231,120 1231,119 1232,119 1232,118 1233,117" stroke-width="1"/><polygon fill="black" points="1228,117 1227,117 1227,118 1226,118 1226,119 1226,120 1226,121 1226,122 1226,123 1226,124 1226,125 1227,125 1227,126 1227,127 1227,128 1227,129 1227,130 1226,130 1226,131 1226,132 1227,132 1227,131 1228,131 1228,130 1228,129 1229,129 1229,128 1229,127 1228,127 1228,126 1228,125 1228,124 1227,123 1227,122 1227,121 1227,120 1228,119 1228,118 1229,118" stroke-width="1"/><polygon fill="black" points="1233,117 1232,117 1232,118 1231,118 1231,119 1231,120 1231,121 1231,122 1231,123 1231,124 1231,125 1232,125 1232,126 1232,127 1232,128 1232,129 1232,130 1231,130 1231,131 1231,132 1232,132 1232,131 1233,131 1233,130 1233,129 1234,129 1234,128 1234,127 1233,127 1233,126 1233,125 1233,124 1232,123 1232,122 1232,121 1232,120 1233,119 1233,118 1234,118" stroke-width="1"/><polyline fill="none" points="396,20 396,40" stroke="black" stroke-width="1"/><polygon fill="black" points="393,43 399,43 396,37" stroke-width="1"/><polyline fill="none" points="396,25 400,25" stroke="black" stroke-width="1"/><polyline fill="none" points="507,20 507,40" stroke="black" stroke-width="1"/><polygon fill="black" points="504,43 510,43 507,37" stroke-width="1"/><polyline fill="none" points="507,25 511,25" stroke="black" stroke-width="1"/><polyline fill="none" points="618,20 618,40" stroke="black" stroke-width="1"/><polygon fill="black" points="615,43 621,43 618,37" stroke-width="1"/><polyline fill="none" points="618,25 622,25" stroke="black" stroke-width="1"/><polyline fill="none" points="729,20 729,40" stroke="black" stroke-width="1"/><polygon fill="black" points="726,43 732,43 729,37" stroke-width="1"/><polyline fill="none" points="729,25 733,25" stroke="black" stroke-width="1"/><polygon fill="none" points="784,30 785,31 784,31 784,32 783,33 783,34 783,35 783,36 784,37 784,38 784,39 784,40 785,40 785,41 785,42 784,42 784,43 784,44 783,44 783,45 782,45 788,45 787,44 787,43 788,43 788,42 788,41 788,40 788,39 788,38 788,37 787,37 787,36 787,35 787,34 787,33 787,32 788,32 788,31 789,30" stroke-width="1"/><polygon fill="black" points="784,30 783,30 783,31 782,31 782,32 782,33 782,34 782,35 782,36 782,37 782,38 783,38 783,39 783,40 783,41 783,42 783,43 782,43 782,44 782,45 783,45 783,44 784,44 784,43 784,42 785,42 785,41 785,40 784,40 784,39 784,38 784,37 783,36 783,35 783,34 783,33 784,32 784,31 785,31" stroke-width="1"/><polygon fill="black" points="789,30 788,30 788,31 787,31 787,32 787,33 787,34 787,35 787,36 787,37 787,38 788,38 788,39 788,40 788,41 788,42 788,43 787,43 787,44 787,45 788,45 788,44 789,44 789,43 789,42 790,42 790,41 790,40 789,40 789,39 789,38 789,37 788,36 788,35 788,34 788,33 789,32 789,31 790,31" stroke-width="1"/><polygon fill="none" points="784,79 785,80 784,80 784,81 783,82 783,83 783,84 783,85 784,86 784,87 784,88 784,89 785,89 785,90 785,91 784,91 784,92 784,93 783,93 783,94 782,94 788,94 787,93 787,92 788,92 788,91 788,90 788,89 788,88 788,87 788,86 787,86 787,85 787,84 787,83 787,82 787,81 788,81 788,80 789,79" stroke-width="1"/><polygon fill="black" points="784,79 783,79 783,80 782,80 782,81 782,82 782,83 782,84 782,85 782,86 782,87 783,87 783,88 783,89 783,90 783,91 783,92 782,92 782,93 782,94 783,94 783,93 784,93 784,92 784,91 785,91 785,90 785,89 784,89 784,88 784,87 784,86 783,85 783,84 783,83 783,82 784,81 784,80 785,80" stroke-width="1"/><polygon fill="black" points="789,79 788,79 788,80 787,80 787,81 787,82 787,83 787,84 787,85 787,86 787,87 788,87 788,88 788,89 788,90 788,91 788,92 787,92 787,93 787,94 788,94 788,93 789,93 789,92 789,91 790,91 790,90 790,89 789,89 789,88 789,87 789,86 788,85 788,84 788,83 788,82 789,81 789,80 790,80" stroke-width="1"/><polygon fill="none" points="784,117 785,118 784,118 784,119 783,120 783,121 783,122 783,123 784,124 784,125 784,126 784,127 785,127 785,128 785,129 784,129 784,130 784,131 783,131 783,132 782,132 788,132 787,131 787,130 788,130 788,129 788,128 788,127 788,126 788,125 788,124 787,124 787,123 787,122 787,121 787,120 787,119 788,119 788,118 789,117" stroke-width="1"/><polygon fill="black" points="784,117 783,117 783,118 782,118 782,119 782,120 782,121 782,122 782,123 782,124 782,125 783,125 783,126 783,127 783,128 783,129 783,130 782,130 782,131 782,132 783,132 783,131 784,131 784,130 784,129 785,129 785,128 785,127 784,127 784,126 784,125 784,124 783,123 783,122 783,121 783,120 784,119 784,118 785,118" stroke-width="1"/><polygon fill="black" points="789,117 788,117 788,118 787,118 787,119 787,120 787,121 787,122 787,123 787,124 787,125 788,125 788,126 788,127 788,128 788,129 788,130 787,130 787,131 787,132 788,132 788,131 789,131 789,130 789,129 790,129 790,128 790,127 789,127 789,126 789,125 789,124 788,123 788,122 788,121 788,120 789,119 789,118 790,118" stroke-width="1"/><polyline fill="none" points="840,20 840,40" stroke="black" stroke-width="1"/><polygon fill="black" points="837,43 843,43 840,37" stroke-width="1"/><polyline fill="none" points="840,25 844,25" stroke="black" stroke-width="1"/><polyline fill="none" points="951,20 951,40" stroke="black" stroke-width="1"/><polygon fill="black" points="948,43 954,43 951,37" stroke-width="1"/><polyline fill="none" points="951,25 955,25" stroke="black" stroke-width="1"/><polygon fill="none" points="1228,30 1229,31 1228,31 1228,32 1227,33 1227,34 1227,35 1227,36 1228,37 1228,38 1228,39 1228,40 1229,40 1229,41 1229,42 1228,42 1228,43 1228,44 1227,44 1227,45 1226,45 1232,45 1231,44 1231,43 1232,43 1232,42 1232,41 1232,40 1232,39 1232,38 1232,37 1231,37 1231,36 1231,35 1231,34 1231,33 1231,32 1232,32 1232,31 1233,30" stroke-width="1"/><polygon fill="black" points="1228,30 1227,30 1227,31 1226,31 1226,32 1226,33 1226,34 1226,35 1226,36 1226,37 1226,38 1227,38 1227,39 1227,40 1227,41 1227,42 1227,43 1226,43 1226,44 1226,45 1227,45 1227,44 1228,44 1228,43 1228,42 1229,42 1229,41 1229,40 1228,40 1228,39 1228,38 1228,37 1227,36 1227,35 1227,34 1227,33 1228,32 1228,31 1229,31" stroke-width="1"/><polygon fill="black" points="1233,30 1232,30 1232,31 1231,31 1231,32 1231,33 1231,34 1231,35 1231,36 1231,37 1231,38 1232,38 1232,39 1232,40 1232,41 1232,42 1232,43 1231,43 1231,44 1231,45 1232,45 1232,44 1233,44 1233,43 1233,42 1234,42 1234,41 1234,40 1233,40 1233,39 1233,38 1233,37 1232,36 1232,35 1232,34 1232,33 1233,32 1233,31 1234,31" stroke-width="1"/><polygon fill="none" points="1228,79 1229,80 1228,80 1228,81 1227,82 1227,83 1227,84 1227,85 1228,86 1228,87 1228,88 1228,89 1229,89 1229,90 1229,91 1228,91 1228,92 1228,93 1227,93 1227,94 1226,94 1232,94 1231,93 1231,92 1232,92 1232,91 1232,90 1232,89 1232,88 1232,87 1232,86 1231,86 1231,85 1231,84 1231,83 1231,82 1231,81 1232,81 1232,80 1233,79" stroke-width="1"/><polygon fill="black" points="1228,79 1227,79 1227,80 1226,80 1226,81 1226,82 1226,83 1226,84 1226,85 1226,86 1226,87 1227,87 1227,88 1227,89 1227,90 1227,91 1227,92 1226,92 1226,93 1226,94 1227,94 1227,93 1228,93 1228,92 1228,91 1229,91 1229,90 1229,89 1228,89 1228,88 1228,87 1228,86 1227,85 1227,84 1227,83 1227,82 1228,81 1228,80 1229,80" stroke-width="1"/><polygon fill="black" points="1233,79 1232,79 1232,80 1231,80 1231,81 1231,82 1231,83 1231,84 1231,85 1231,86 1231,87 1232,87 1232,88 1232,89 1232,90 1232,91 1232,92 1231,92 1231,93 1231,94 1232,94 1232,93 1233,93 1233,92 1233,91 1234,91 1234,90 1234,89 1233,89 1233,88 1233,87 1233,86 1232,85 1232,84 1232,83 1232,82 1233,81 1233,80 1234,80" stroke-width="1"/><polygon fill="none" points="1228,117 1229,118 1228,118 1228,119 1227,120 1227,121 1227,122 1227,123 1228,124 1228,125 1228,126 1228,127 1229,127 1229,128 1229,129 1228,129 1228,130 1228,131 1227,131 1227,132 1226,132 1232,132 1231,131 1231,130 1232,130 1232,129 1232,128 1232,127 1232,126 1232,125 1232,124 1231,124 1231,123 1231,122 1231,121 1231,120 1231,119 1232,119 1232,118 1233,117" stroke-width="1"/><polygon fill="black" points="1228,117 1227,117 1227,118 1226,118 1226,119 1226,120 1226,121 1226,122 1226,123 1226,124 1226,125 1227,125 1227,126 1227,127 1227,128 1227,129 1227,130 1226,130 1226,131 1226,132 1227,132 1227,131 1228,131 1228,130 1228,129 1229,129 1229,128 1229,127 1228,127 1228,126 1228,125 1228,124 1227,123 1227,122 1227,121 1227,120 1228,119 1228,118 1229,118" stroke-width="1"/><polygon fill="black" points="1233,117 1232,117 1232,118 1231,118 1231,119 1231,120 1231,121 1231,122 1231,123 1231,124 1231,125 1232,125 1232,126 1232,127 1232,128 1232,129 1232,130 1231,130 1231,131 1231,132 1232,132 1232,131 1233,131 1233,130 1233,129 1234,129 1234,128 1234,127 1233,127 1233,126 1233,125 1233,124 1232,123 1232,122 1232,121 1232,120 1233,119 1233,118 1234,118" stroke-width="1"/><polygon fill="none" points="784,30 785,31 784,31 784,32 783,33 783,34 783,35 783,36 784,37 784,38 784,39 784,40 785,40 785,41 785,42 784,42 784,43 784,44 783,44 783,45 782,45 788,45 787,44 787,43 788,43 788,42 788,41 788,40 788,39 788,38 788,37 787,37 787,36 787,35 787,34 787,33 787,32 788,32 788,31 789,30" stroke-width="1"/><polygon fill="black" points="784,30 783,30 783,31 782,31 782,32 782,33 782,34 782,35 782,36 782,37 782,38 783,38 783,39 783,40 783,41 783,42 783,43 782,43 782,44 782,45 783,45 783,44 784,44 784,43 784,42 785,42 785,41 785,40 784,40 784,39 784,38 784,37 783,36 783,35 783,34 783,33 784,32 784,31 785,31" stroke-width="1"/><polygon fill="black" points="789,30 788,30 788,31 787,31 787,32 787,33 787,34 787,35 787,36 787,37 787,38 788,38 788,39 788,40 788,41 788,42 788,43 787,43 787,44 787,45 788,45 788,44 789,44 789,43 789,42 790,42 790,41 790,40 789,40 789,39 789,38 789,37 788,36 788,35 788,34 788,33 789,32 789,31 790,31" stroke-width="1"/><polygon fill="none" points="784,79 785,80 784,80 784,81 783,82 783,83 783,84 783,85 784,86 784,87 784,88 784,89 785,89 785,90 785,91 784,91 784,92 784,93 783,93 783,94 782,94 788,94 787,93 787,92 788,92 788,91 788,90 788,89 788,88 788,87 788,86 787,86 787,85 787,84 787,83 787,82 787,81 788,81 788,80 789,79" stroke-width="1"/><polygon fill="black" points="784,79 783,79 783,80 782,80 782,81 782,82 782,83 782,84 782,85 782,86 782,87 783,87 783,88 783,89 783,90 783,91 783,92 782,92 782,93 782,94 783,94 783,93 784,93 784,92 784,91 785,91 785,90 785,89 784,89 784,88 784,87 784,86 783,85 783,84 783,83 783,82 784,81 784,80 785,80" stroke-width="1"/><polygon fill="black" points="789,79 788,79 788,80 787,80 787,81 787,82 787,83 787,84 787,85 787,86 787,87 788,87 788,88 788,89 788,90 788,91 788,92 787,92 787,93 787,94 788,94 788,93 789,93 789,92 789,91 790,91 790,90 790,89 789,89 789,88 789,87 789,86 788,85 788,84 788,83 788,82 789,81 789,80 790,80" stroke-width="1"/><polygon fill="none" points="784,117 785,118 784,118 784,119 783,120 783,121 783,122 783,123 784,124 784,125 784,126 784,127 785,127 785,128 785,129 784,129 784,130 784,131 783,131 783,132 782,132 788,132 787,131 787,130 788,130 788,129 788,128 788,127 788,126 788,125 788,124 787,124 787,123 787,122 787,121 787,120 787,119 788,119 788,118 789,117" stroke-width="1"/><polygon fill="black" points="784,117 783,117 783,118 782,118 782,119 782,120 782,121 782,122 782,123 782,124 782,125 783,125 783,126 783,127 783,128 783,129 783,130 782,130 782,131 782,132 783,132 783,131 784,131 784,130 784,129 785,129 785,128 785,127 784,127 784,126 784,125 784,124 783,123 783,122 783,121 783,120 784,119 784,118 785,118" stroke-width="1"/><polygon fill="black" points="789,117 788,117 788,118 787,118 787,119 787,120 787,121 787,122 787,123 787,124 787,125 788,125 788,126 788,127 788,128 788,129 788,130 787,130 787,131 787,132 788,132 788,131 789,131 789,130 789,129 790,129 790,128 790,127 789,127 789,126 789,125 789,124 788,123 788,122 788,121 788,120 789,119 789,118 790,118" stroke-width="1"/><polygon fill="none" points="1228,30 1229,31 1228,31 1228,32 1227,33 1227,34 1227,35 1227,36 1228,37 1228,38 1228,39 1228,40 1229,40 1229,41 1229,42 1228,42 1228,43 1228,44 1227,44 1227,45 1226,45 1232,45 1231,44 1231,43 1232,43 1232,42 1232,41 1232,40 1232,39 1232,38 1232,37 1231,37 1231,36 1231,35 1231,34 1231,33 1231,32 1232,32 1232,31 1233,30" stroke-width="1"/><polygon fill="black" points="1228,30 1227,30 1227,31 1226,31 1226,32 1226,33 1226,34 1226,35 1226,36 1226,37 1226,38 1227,38 1227,39 1227,40 1227,41 1227,42 1227,43 1226,43 1226,44 1226,45 1227,45 1227,44 1228,44 1228,43 1228,42 1229,42 1229,41 1229,40 1228,40 1228,39 1228,38 1228,37 1227,36 1227,35 1227,34 1227,33 1228,32 1228,31 1229,31" stroke-width="1"/><polygon fill="black" points="1233,30 1232,30 1232,31 1231,31 1231,32 1231,33 1231,34 1231,35 1231,36 1231,37 1231,38 1232,38 1232,39 1232,40 1232,41 1232,42 1232,43 1231,43 1231,44 1231,45 1232,45 1232,44 1233,44 1233,43 1233,42 1234,42 1234,41 1234,40 1233,40 1233,39 1233,38 1233,37 1232,36 1232,35 1232,34 1232,33 1233,32 1233,31 1234,31" stroke-width="1"/><polygon fill="none" points="1228,79 1229,80 1228,80 1228,81 1227,82 1227,83 1227,84 1227,85 1228,86 1228,87 1228,88 1228,89 1229,89 1229,90 1229,91 1228,91 1228,92 1228,93 1227,93 1227,94 1226,94 1232,94 1231,93 1231,92 1232,92 1232,91 1232,90 1232,89 1232,88 1232,87 1232,86 1231,86 1231,85 1231,84 1231,83 1231,82 1231,81 1232,81 1232,80 1233,79" stroke-width="1"/><polygon fill="black" points="1228,79 1227,79 1227,80 1226,80 1226,81 1226,82 1226,83 1226,84 1226,85 1226,86 1226,87 1227,87 1227,88 1227,89 1227,90 1227,91 1227,92 1226,92 1226,93 1226,94 1227,94 1227,93 1228,93 1228,92 1228,91 1229,91 1229,90 1229,89 1228,89 1228,88 1228,87 1228,86 1227,85 1227,84 1227,83 1227,82 1228,81 1228,80 1229,80" stroke-width="1"/><polygon fill="black" points="1233,79 1232,79 1232,80 1231,80 1231,81 1231,82 1231,83 1231,84 1231,85 1231,86 1231,87 1232,87 1232,88 1232,89 1232,90 1232,91 1232,92 1231,92 1231,93 1231,94 1232,94 1232,93 1233,93 1233,92 1233,91 1234,91 1234,90 1234,89 1233,89 1233,88 1233,87 1233,86 1232,85 1232,84 1232,83 1232,82 1233,81 1233,80 1234,80" stroke-width="1"/><polygon fill="none" points="1228,117 1229,118 1228,118 1228,119 1227,120 1227,121 1227,122 1227,123 1228,124 1228,125 1228,126 1228,127 1229,127 1229,128 1229,129 1228,129 1228,130 1228,131 1227,131 1227,132 1226,132 1232,132 1231,131 1231,130 1232,130 1232,129 1232,128 1232,127 1232,126 1232,125 1232,124 1231,124 1231,123 1231,122 1231,121 1231,120 1231,119 1232,119 1232,118 1233,117" stroke-width="1"/><polygon fill="black" points="1228,117 1227,117 1227,118 1226,118 1226,119 1226,120 1226,121 1226,122 1226,123 1226,124 1226,125 1227,125 1227,126 1227,127 1227,128 1227,129 1227,130 1226,130 1226,131 1226,132 1227,132 1227,131 1228,131 1228,130 1228,129 1229,129 1229,128 1229,127 1228,127 1228,126 1228,125 1228,124 1227,123 1227,122 1227,121 1227,120 1228,119 1228,118 1229,118" stroke-width="1"/><polygon fill="black" points="1233,117 1232,117 1232,118 1231,118 1231,119 1231,120 1231,121 1231,122 1231,123 1231,124 1231,125 1232,125 1232,126 1232,127 1232,128 1232,129 1232,130 1231,130 1231,131 1231,132 1232,132 1232,131 1233,131 1233,130 1233,129 1234,129 1234,128 1234,127 1233,127 1233,126 1233,125 1233,124 1232,123 1232,122 1232,121 1232,120 1233,119 1233,118 1234,118" stroke-width="1"/><text x="955" y="29" font-family="Arial" font-size="9pt" fill="black">bit[n-1]</text><text x="844" y="29" font-family="Arial" font-size="9pt" fill="black">bit[n-2]</text><text x="733" y="29" font-family="Arial" font-size="9pt" fill="black">bit[3]</text><text x="622" y="29" font-family="Arial" font-size="9pt" fill="black">bit[2]</text><text x="511" y="29" font-family="Arial" font-size="9pt" fill="black">bit[1]</text><text x="400" y="29" font-family="Arial" font-size="9pt" fill="black">bit[0]</text><text x="1569" y="116" font-family="Arial" font-size="9pt" fill="darkgreen">t2</text><text x="987" y="116" font-family="Arial" font-size="9pt" fill="darkgreen">t4</text><text x="349" y="116" font-family="Arial" font-size="9pt" fill="darkgreen">t2</text><text x="1242" y="78" font-family="Arial" font-size="9pt" fill="darkgreen">&gt;</text><text x="1249" y="78" font-family="Arial" font-size="9pt" fill="darkgreen"> 4 SCLK cycle</text><text x="1583" y="78" font-family="Arial" font-size="9pt" fill="darkgreen">t1</text><text x="637" y="78" font-family="Arial" font-size="9pt" fill="darkgreen">n SCLK cycle</text><text x="1242" y="78" font-family="Arial" font-size="9pt" fill="darkgreen">&gt;</text><text x="1249" y="78" font-family="Arial" font-size="9pt" fill="darkgreen"> 4 SCLK cycle</text><text x="973" y="67" font-family="Arial" font-size="9pt" fill="darkgreen">t3</text><text x="637" y="78" font-family="Arial" font-size="9pt" fill="darkgreen">n SCLK cycle</text><text x="363" y="67" font-family="Arial" font-size="9pt" fill="darkgreen">t1</text><text x="1101" y="29" font-family="Arial" font-size="9pt" fill="darkgreen">1 MHz</text><text x="1101" y="29" font-family="Arial" font-size="9pt" fill="darkgreen">1 MHz</text><text x="7" y="43" font-family="Arial" font-size="9pt" fill="black">O</text><text x="60" y="26" text-anchor="end" style="dominant-baseline: hanging;" font-family="Arial" font-size="9pt" fill="black">SCLK</text><text x="7" y="92" font-family="Arial" font-size="9pt" fill="black">O</text><text x="60" y="75" text-anchor="end" style="dominant-baseline: hanging;" font-family="Arial" font-size="9pt" fill="black">SEN</text><text x="7" y="131" font-family="Arial" font-size="9pt" fill="black">O</text><text x="60" y="113" text-anchor="end" style="dominant-baseline: hanging;" font-family="Arial" font-size="9pt" fill="black">SDATA</text></g></svg>
