<?xml version="1.0" encoding="iso-8859-1"?>
<svg viewBox="0 0 850 115" xmlns="http://www.w3.org/2000/svg"><g id="mainlayer"><defs/><polyline fill="none" points="162,0 162,114" stroke="lightgray" stroke-width="1"/><polyline fill="none" points="358,0 358,114" stroke="lightgray" stroke-width="1" stroke-dasharray="12 4"/><polyline fill="none" points="555,0 555,114" stroke="lightgray" stroke-width="1"/><polygon stroke="darkgreen" fill="darkgreen" points="555,14 551,12 551,16" stroke-width="1"/><polyline fill="none" stroke="darkgreen" points="374,14 551,14" stroke-width="1"/><polygon stroke="darkgreen" fill="darkgreen" points="162,14 166,12 166,16" stroke-width="1"/><polyline fill="none" stroke="darkgreen" points="342,14 166,14" stroke-width="1"/><polyline fill="none" points="555,9 555,28" stroke="darkgreen" stroke-width="1"/><polyline fill="none" points="162,9 162,28" stroke="darkgreen" stroke-width="1"/><polygon stroke="darkgreen" fill="darkgreen" points="555,14 551,12 551,16" stroke-width="1"/><polyline fill="none" stroke="darkgreen" points="374,14 551,14" stroke-width="1"/><polygon stroke="darkgreen" fill="darkgreen" points="162,14 166,12 166,16" stroke-width="1"/><polyline fill="none" stroke="darkgreen" points="342,14 166,14" stroke-width="1"/><polyline fill="none" points="555,9 555,28" stroke="darkgreen" stroke-width="1"/><polyline fill="none" points="162,9 162,28" stroke="darkgreen" stroke-width="1"/><polygon stroke="darkgreen" fill="darkgreen" points="358,90 354,88 354,92" stroke-width="1"/><polyline fill="none" stroke="darkgreen" points="314,90 354,90" stroke-width="1"/><polygon stroke="darkgreen" fill="darkgreen" points="260,90 264,88 264,92" stroke-width="1"/><polyline fill="none" stroke="darkgreen" points="304,90 264,90" stroke-width="1"/><polyline fill="none" points="260,85 260,94" stroke="darkgreen" stroke-width="1"/><polyline fill="none" points="358,28 358,95" stroke="darkgreen" stroke-width="1"/><polygon stroke="darkgreen" fill="darkgreen" points="457,90 453,88 453,92" stroke-width="1"/><polyline fill="none" stroke="darkgreen" points="412,90 453,90" stroke-width="1"/><polygon stroke="darkgreen" fill="darkgreen" points="358,90 362,88 362,92" stroke-width="1"/><polyline fill="none" stroke="darkgreen" points="402,90 362,90" stroke-width="1"/><polyline fill="none" points="457,85 457,94" stroke="darkgreen" stroke-width="1"/><polyline fill="none" points="358,45 358,95" stroke="darkgreen" stroke-width="1"/><polyline fill="none" points="64,46 64,32 158,32" stroke="black" stroke-width="1"/><polyline fill="none" points="158,32 166,46 354,46" stroke="black" stroke-width="1"/><polyline fill="none" points="354,46 362,32 551,32" stroke="black" stroke-width="1"/><polyline fill="none" points="551,32 559,46 649,46" stroke="black" stroke-width="1"/><polyline fill="none" points="68,59 649,59" stroke="black" stroke-width="1"/><polygon stroke="black" fill="darkgray" points="64,98 64,112 256,112 260,105 256,98" stroke-width="1"/><polygon stroke="black" fill="white" points="264,98 260,105 264,112 453,112 457,105 453,98" stroke-width="1"/><text x="352" y="109" font-family="Arial" font-size="9pt" fill="black">Vx</text><polygon stroke="black" fill="darkgray" points="461,98 457,105 461,112 653,112 653,98" stroke-width="1"/><polyline fill="none" points="358,20 358,40" stroke="black" stroke-width="1"/><polygon fill="black" points="355,43 361,43 358,37" stroke-width="1"/><polyline fill="none" points="358,25 362,25" stroke="black" stroke-width="1"/><text x="362" y="29" font-family="Arial" font-size="9pt" fill="black">bit[x]</text><text x="402" y="94" font-family="Arial" font-size="9pt" fill="darkgreen">t6</text><text x="304" y="94" font-family="Arial" font-size="9pt" fill="darkgreen">t5</text><text x="342" y="18" font-family="Arial" font-size="9pt" fill="darkgreen">1 MHz</text><text x="342" y="18" font-family="Arial" font-size="9pt" fill="darkgreen">1 MHz</text><text x="2" y="43" font-family="Arial" font-size="9pt" fill="black">NC</text><text x="60" y="26" text-anchor="end" style="dominant-baseline: hanging;" font-family="Arial" font-size="9pt" fill="black">SCLK</text><text x="2" y="70" font-family="Arial" font-size="9pt" fill="black">NC</text><text x="60" y="53" text-anchor="end" style="dominant-baseline: hanging;" font-family="Arial" font-size="9pt" fill="black">SEN</text><text x="2" y="109" font-family="Arial" font-size="9pt" fill="black">NC</text><text x="60" y="92" text-anchor="end" style="dominant-baseline: hanging;" font-family="Arial" font-size="9pt" fill="black">SDATA</text></g></svg>
